<?xml version="1.0" encoding="utf-8"?>
<!-- Generator: Adobe Illustrator 27.5.0, SVG Export Plug-In . SVG Version: 6.00 Build 0)  -->
<svg version="1.1" xmlns="http://www.w3.org/2000/svg" xmlns:xlink="http://www.w3.org/1999/xlink" x="0px" y="0px"
	 viewBox="0 0 750 500" style="enable-background:new 0 0 750 500;" xml:space="preserve">
<g id="BACKGROUND">
</g>
<g id="OBJECTS">
	<g>
		<rect style="fill:#BCF5F7;" width="750" height="315.554"/>
		<g>
			<g>
				<path style="fill:#91EBF2;" d="M750,113.279c-0.037,0.209-0.089,0.413-0.122,0.624c-0.233,1.504-1.847,2.389-3.209,1.7
					c-1.437-0.727-3.064-1.138-4.789-1.138c-3.856,0-7.226,2.045-9.076,5.101c-0.909,1.502-2.944,1.764-4.209,0.544
					c-2.987-2.882-7.06-4.661-11.559-4.661c-7.153,0-13.249,4.483-15.588,10.77c-0.085,0.229-0.164,0.518-0.237,0.849
					c-0.705,3.196-3.705,5.409-6.96,4.985c-0.64-0.083-1.246-0.134-1.771-0.134c-12.294,0-22.26,9.882-22.26,22.073v0.015
					c0.002,1.774-1.586,3.126-3.344,2.848c-0.845-0.134-1.712-0.204-2.595-0.204c-5.336,0-10.073,2.509-13.096,6.401
					c-1.661,2.138-4.74,2.473-6.928,0.874c-6.627-4.844-14.814-7.708-23.676-7.708c-10.682,0-20.385,4.159-27.555,10.932
					c-1.088,1.028-2.876,0.262-2.875-1.232c0-13.66-11.161-24.733-24.928-24.733c-1.89,0-3.729,0.21-5.498,0.606
					c-4.3,0.964-8.825-0.384-11.62-3.781c-9.697-11.785-24.392-19.304-40.847-19.303c-24.215,0.001-44.574,16.292-50.832,38.499
					c-0.828,2.938-3.677,4.846-6.727,4.58c-0.668-0.058-1.345-0.088-2.028-0.088c-10.803,0-19.895,7.213-22.793,17.076
					c-0.006,0.021-0.034,0.02-0.038-0.001c-3.719-18.083-19.838-31.688-39.162-31.688c-3.55,0-6.99,0.463-10.265,1.328
					c-3.433,0.906-7.035-0.306-9.166-3.137c-3.869-5.14-10.049-8.468-17.013-8.468c-7.161,0-13.491,3.52-17.333,8.911
					c-1.804,2.531-4.949,3.705-8.026,3.224c-1.339-0.209-2.711-0.318-4.11-0.318c-7.938,0-15.057,3.477-19.895,8.98
					c-2.131,2.424-5.579,3.275-8.488,1.868c-2.106-1.019-4.29-1.902-6.541-2.638c-2.851-0.932-4.341-3.946-3.611-6.847
					c0.321-1.275,0.492-2.61,0.492-3.984c0-9.071-7.411-16.424-16.553-16.424c-1.8,0-3.529,0.288-5.149,0.819
					c-2.978,0.975-6.234-0.155-8.064-2.691c-8.262-11.448-21.715-18.901-36.914-18.901c-15.837,0.001-29.761,8.106-37.901,20.383
					c-2.296,3.462-6.61,4.988-10.565,3.691c-5.135-1.684-10.61-2.61-16.31-2.61c-11.011,0.001-21.229,3.375-29.693,9.135
					c-1.569,1.068-3.734,0.817-4.985-0.608c-2.2-2.505-5.435-4.09-9.047-4.09c-4.505,0-8.423,2.464-10.476,6.105
					c-0.881,1.563-2.686,2.312-4.431,1.878c-1.961-0.487-4.013-0.748-6.127-0.748c-1.6,0-3.165,0.148-4.681,0.431
					c-2.058,0.384-4.04-0.892-4.626-2.895c-2.484-8.496-10.382-14.707-19.746-14.707c-0.136,0-0.271,0.001-0.406,0.004
					c-2.16,0.042-3.898-1.831-3.558-3.957c0.183-1.144,0.279-2.316,0.279-3.511c0-12.347-10.088-22.356-22.533-22.356
					c-12.444,0-22.533,10.009-22.533,22.356c0,0.286,0.011,0.569,0.022,0.852c-2.664,0.505-5.239,1.248-7.725,2.175v132.007h750
					V113.279z M93.65,196.315c0.002-0.129,0.01-0.257,0.01-0.386c0-0.167-0.009-0.332-0.013-0.499
					c0.549,0.152,1.107,0.277,1.676,0.376C94.763,195.969,94.203,196.134,93.65,196.315z"/>
				<path style="fill:#FFFFFF;" d="M232.351,240.088c-3.315-5.973-14.19-9.985-21.247-8.531c-0.741,0.153-1.458,0.355-2.15,0.603
					c-2.64,0.945-5.533,0.075-7.177-2.192c-6.272-8.649-16.829-13.667-27.923-12.596c-1.422,0.069-2.857,0.246-4.296,0.543
					c-5.099,1.05-9.579,3.43-13.158,6.698c-1.884,1.721-4.848,1.47-6.466-0.501c-9.329-11.37-24.523-17.312-39.954-14.133
					c-2.511,0.517-3.108,0.567-5.399,1.5c-3.268,0.879-4.441-2.516-4.879-3.438c-2.525-5.325-8.453-8.444-14.493-7.199
					c-0.948,0.195-1.849,0.489-2.696,0.869c-2.24,1.003-4.885,0.493-6.386-1.445c-8.777-11.334-23.544-17.349-38.553-14.257
					c-12.584,2.592-22.467,10.995-27.428,21.82c-1.148,2.504-4.378,3.056-6.319,1.098c-1.126-1.135-2.419-2.089-3.827-2.838v123.846
					C114.434,317.516,295.944,335.236,232.351,240.088z"/>
				<path style="fill:#FFFFFF;" d="M750,193.417c-6.907-1.432-13.896,0.268-19.325,4.268c-2.194,1.616-5.17,1.518-7.414-0.028
					c-2.106-1.451-4.444-2.636-6.993-3.482c-14.794-4.914-30.813,3.154-35.778,18.021c-0.437,1.308-0.764,2.625-0.997,3.942
					c-0.225,1.269-1.327,2.171-2.618,2.142c-4.039-0.091-7.997,0.701-11.631,2.246c-3.015,1.281-6.53,0.289-8.241-2.498
					c-3.991-6.501-10.196-11.677-17.99-14.266c-14.998-4.982-31.045,1.225-39.165,14.084c-1.042,1.649-3.204,2.079-4.864,1.05
					c-1.09-0.676-2.276-1.239-3.548-1.661c-6.612-2.196-13.623-0.1-18.002,4.773c-0.851,0.853-1.535,1.852-2.075,2.823
					c-1.109,1.998-3.519,2.837-5.641,1.977c-3.846-1.559-9.809-2.583-14.783,2.652c-1.377,1.947-3.624,3.147-6.004,2.929
					c-18.734-1.717-27.956,19.236-27.956,19.236L750,354.724V193.417z"/>
			</g>
			<g>
				<path style="fill:#008C97;" d="M202.131,184.968c0,0,1.218-0.442,3.063-1.03c0,0,0.037-1.435,0.886-2.318
					c0.849-0.883,1.107-2.392,1.476-2.465c0.369-0.074,1.033,1.214,0.553,2.024c-0.48,0.81-0.775,1.325-0.701,2.282
					c0,0,1.734-0.184,2.14,0.405c0,0,0.59,0.239,0.609,0.46c0,0-0.48-0.147-0.646-0.147c-0.166,0-0.369,0.258-0.719,0.386
					c-0.35,0.129-2.343,0.515-2.343,0.515s-0.037,2.539-0.683,3.698c-0.646,1.159-0.609,1.564-0.867,1.601
					c-0.258,0.037-0.609-0.754-0.443-1.674c0.166-0.92,0.092-3.054-0.018-3.22C204.327,185.318,202.426,185.723,202.131,184.968z"/>
				<path style="fill:#008C97;" d="M476.773,89.928c0,0,0.801-0.267,2.014-0.619c0,0,0.049-0.935,0.617-1.496
					c0.568-0.561,0.763-1.54,1.005-1.581c0.242-0.042,0.652,0.809,0.326,1.329c-0.327,0.519-0.528,0.85-0.496,1.475
					c0,0,1.133-0.09,1.388,0.301c0,0,0.381,0.166,0.389,0.31c0,0-0.31-0.104-0.418-0.107c-0.108-0.003-0.245,0.162-0.476,0.239
					c-0.231,0.078-1.536,0.295-1.536,0.295s-0.068,1.654-0.509,2.398c-0.441,0.744-0.424,1.009-0.593,1.028
					c-0.169,0.02-0.384-0.502-0.26-1.099c0.124-0.597,0.113-1.989,0.044-2.099C478.198,90.194,476.953,90.425,476.773,89.928z"/>
			</g>
			<g>
				<ellipse style="fill:#FFC340;" cx="615.745" cy="70.439" rx="19.113" ry="19.06"/>
				<g>
					<g>
						<path style="fill:#FFFFFF;" d="M72.786,84.602h240.025c-9.554-14.244-18.557-6.026-28.812-9.926
							c-9.235-3.513-10.898-17.418-29.661-12.27c-2.795,0.727-5.96,0.281-8.037-1.934c-11.969-13.47-34.13-14.623-43.621-1.038
							c-1.487,2.087-4.056,2.11-5.618,0.2c-17.979-22.808-56.891-16.001-62.596,8.355c-0.481,2.339-2.362,3.002-4.645,1.901
							c-3.686-1.779-7.952-2.515-11.991-1.691c-3.157,0.644-5.786,2.406-8.184,4.48c-3.546,3.068-8.321,4.835-13.033,4.024
							c-2.341-0.403-4.623-0.755-7.011-0.567c-4.167,0.327-7.834,2.196-11.248,4.49C76.46,81.897,74.632,83.262,72.786,84.602z"/>
						<path style="fill:#DCFFFF;" d="M303.76,76.704c-1.565,1.665-3.371,3.203-5.55,3.963c-2.954,1.03-6.252,0.616-9.311,0.505
							c-3.846-0.139-7.695,0.12-11.538-0.182c-3.249-0.254-6.457-0.874-9.545-1.913c-2.881-0.97-5.656-2.217-8.484-3.324
							c-2.762-1.08-5.619-2.052-8.586-2.355c-1.506-0.154-3.036-0.143-4.535,0.077c-1.68,0.246-3.226,0.808-4.824,1.352
							c-6.635,2.257-13.926,2.402-20.758,0.997c-3.509-0.722-6.846-2.053-10.336-2.843c-3.608-0.816-7.081-0.706-10.665,0.177
							c-3.443,0.848-6.843,1.943-10.41,2.132c-3.426,0.181-6.996-0.292-10.351-0.959c-6.576-1.308-12.551-4.162-17.738-8.39
							c-4.449-3.626-8.684-8.658-8.684-14.693c0-0.956,0.088-1.919,0.244-2.875c-8.928,3.492-16.027,10.256-18.22,19.616
							c-0.481,2.339-2.362,3.002-4.645,1.9c-3.686-1.779-7.952-2.515-11.991-1.691c-3.157,0.644-5.786,2.406-8.184,4.48
							c-3.546,3.068-8.321,4.835-13.033,4.024c-2.341-0.403-4.623-0.755-7.011-0.568c-4.167,0.327-7.834,2.196-11.248,4.49
							c-1.893,1.272-3.722,2.637-5.568,3.977h240.025C309.757,80.049,306.76,77.797,303.76,76.704z"/>
					</g>
					<g>
						<path style="fill:#FFFFFF;" d="M328.414,101.367h37.02c-2.574-2.955-5.622-4.241-9.049-4.034
							c-0.949,0.047-1.913-0.096-2.911-0.914c-4.23-4.408-11.877-3.764-14.459,1.727c-0.246,0.545-1.135,1.051-2.222,0.935
							C333.881,98.677,331.13,99.848,328.414,101.367z"/>
						<path style="fill:#DCFFFF;" d="M363.595,99.605c-0.275,0.12-0.561,0.216-0.871,0.265c-1.204,0.193-2.442-0.01-3.614-0.3
							c-1.112-0.276-2.187-0.599-3.342-0.652c-0.599-0.027-1.202,0.001-1.795,0.094c-0.603,0.094-1.194,0.255-1.791,0.38
							c-1.121,0.236-2.265,0.417-3.415,0.382c-0.974-0.029-1.96-0.219-2.892-0.502c-0.725-0.22-1.439-0.53-2.019-1.026
							c-0.607-0.518-0.971-1.226-1.062-2.015c-0.08-0.696,0.024-1.383,0.303-2.011c-1.727,0.736-3.202,2.046-4.084,3.923
							c-0.246,0.545-1.135,1.051-2.222,0.935c-2.911-0.403-5.663,0.769-8.379,2.287h37.02
							C364.845,100.692,364.232,100.108,363.595,99.605z"/>
					</g>
					<g>
						<path style="fill:#FFFFFF;" d="M425.47,146.601c0,0,112.632,0,112.654,0c-0.112,0-0.548-0.613-0.627-0.694
							c-0.592-0.615-1.226-1.19-1.885-1.732c-2.214-1.823-4.737-3.277-7.422-4.289c-1.767-0.666-3.607-1.139-5.476-1.411
							c-2.721-0.396-5.354,0.001-8.074,0.02c-1.421,0.01-2.945-0.221-4.113-1.09c-1.071-0.796-1.685-2.071-2.521-3.081
							c-0.456-0.55-0.969-1.053-1.519-1.509c-1.182-0.982-2.532-1.756-3.943-2.362c-3.037-1.303-6.421-1.881-9.72-1.706
							c-3.112,0.166-6.325,1.039-8.758,3.057c-0.403,0.335-0.782,0.699-1.129,1.091c-0.787,0.888-3.001,1.38-4.712,0.294
							c-6.211-4.814-14.62-3.9-17.89,1.241c-0.421,0.662-1.569,1.317-2.944,0.756c-1.883-1.012-4.13-1.126-6.054-0.16
							c-0.829,0.416-1.57,1.01-2.146,1.737c-0.592,0.747-0.883,1.667-1.367,2.478c-0.77,1.287-2.315,2.221-3.845,2.083
							C436.632,140.662,431.613,142.139,425.47,146.601z"/>
						<path style="fill:#DCFFFF;" d="M537.498,145.907c-0.592-0.615-1.226-1.19-1.885-1.732c-0.131-0.108-0.267-0.21-0.4-0.316
							c-3.615,1.395-8.031,0.739-11.685-0.111c-2.833-0.658-5.587-1.713-8.496-1.988c-4.01-0.379-8.054,0.211-12.054-0.332
							c-3.39-0.461-6.378-2.054-9.53-3.263c-1.481-0.568-3.017-1.033-4.603-1.18c-1.743-0.161-3.445,0.099-5.128,0.549
							c-3.255,0.87-6.382,2.348-9.782,2.592c-2.948,0.211-6.082-0.597-8.065-2.893c-1.454-1.683-2.11-3.802-2.075-5.924
							c-1.413,0.739-2.611,1.785-3.46,3.12c-0.421,0.662-1.569,1.317-2.944,0.756c-1.883-1.012-4.13-1.126-6.054-0.16
							c-0.829,0.416-1.57,1.01-2.146,1.737c-0.592,0.747-0.883,1.667-1.367,2.478c-0.77,1.287-2.315,2.221-3.845,2.083
							c-7.347-0.661-12.366,0.816-18.508,5.278c0,0,112.632,0,112.654,0C538.013,146.601,537.577,145.989,537.498,145.907z"/>
					</g>
					<g>
						<path style="fill:#FFFFFF;" d="M339.148,57.024H442.48c-6.42-5.729-13.766-7.657-20.535-6.245
							c-3.08,0.689-4.62-0.735-5.364-1.527c-7.626-8.118-22.481-11.12-30.968-6.33c-0.817,0.461-1.875,1.398-5.298,0.842
							c-7.934-1.389-13.862,2.357-17.01,6.838c-0.436,0.621-1.706,1.576-3.368,1.158C352.724,49.9,345.229,52.889,339.148,57.024z"
							/>
						<path style="fill:#DCFFFF;" d="M434.73,52.074c-0.422,0.349-0.858,0.679-1.32,0.974c-2.341,1.492-5.195,1.874-7.923,1.906
							c-2.883,0.034-5.979-0.231-8.713-1.188c-1.466-0.513-2.868-1.192-4.343-1.682c-1.467-0.488-2.945-0.692-4.481-0.442
							c-2.753,0.447-5.253,1.895-8.077,1.999c-2.704,0.1-5.201-1.257-7.687-2.117c-1.229-0.425-2.512-0.77-3.824-0.702
							c-1.422,0.073-2.546,0.844-3.852,1.3c-2.567,0.896-5.475,0.778-7.833-0.639c-2.306-1.386-4.001-3.889-4.319-6.564
							c-0.03-0.255-0.04-0.521-0.039-0.791c-3.971,1.146-7.04,3.666-9.015,6.477c-0.436,0.621-1.706,1.576-3.368,1.158
							c-7.212-1.86-14.707,1.129-20.788,5.264H442.48C440.006,54.817,437.393,53.179,434.73,52.074z"/>
					</g>
					<g>
						<g>
							<path style="fill:#FFFFFF;" d="M500.321,101.367H680.96c-9.618-6.806-18.057-11.169-23.589-9.505
								c-2.67,0.875-5.019,0.392-6.317-1.909c-10.332-15.987-22.637-17.32-30.514-11.124c-0.515,0.405-2.589,1.398-4.603,0.46
								c-8.575-3.805-32.151-17.092-44.064-1.301c-0.552,0.732-1.96,1.976-4.286,1.017c-12.907-5.901-24.591-0.971-26.835,9.981
								c-0.399,1.215-0.732,4.345-5.011,3.5C518.292,89.033,500.321,101.367,500.321,101.367z"/>
						</g>
						<g>
							<path style="fill:#DCFFFF;" d="M670.487,94.808c-1.99,0.896-4.029,1.63-6.217,1.89c-2.916,0.346-5.949,0.061-8.855-0.266
								c-2.946-0.332-5.907-0.734-8.8-1.386c-5.59-1.26-11.02-3.187-16.679-4.145c-2.817-0.477-5.691-0.693-8.542-0.422
								c-2.992,0.284-5.809,1.196-8.552,2.387c-2.318,1.007-4.624,1.974-7.161,2.236c-2.423,0.251-4.895,0.099-7.305-0.215
								c-2.378-0.309-4.657-0.869-6.898-1.724c-2.204-0.84-4.352-1.842-6.636-2.456c-2.529-0.68-5.143-0.789-7.715-0.289
								c-2.282,0.443-4.462,1.265-6.668,1.977c-4.324,1.395-9.291,2.096-13.313-0.578c-3.539-2.353-4.192-6.702-4.151-10.636
								c0.016-1.5,0.141-2.967,0.46-4.402c-6.49,1.13-11.341,5.555-12.704,12.208c-0.399,1.215-0.732,4.345-5.011,3.5
								c-17.449-3.453-35.42,8.88-35.42,8.88H680.96C677.261,98.749,673.739,96.498,670.487,94.808z"/>
						</g>
					</g>
				</g>
			</g>
		</g>
		<g>
			<path style="fill:#32CC91;" d="M750,276.482l-72.945-37.132c-27.014-12.604-54.758-15.798-90.222,1.764
				c-13.842,6.624-26.651,6.754-40.306,0c-15.766-7.684-31.398-16.011-47.372-23.089c-23.919-10.599-46.02-23.891-71.652-28.285
				c-54.865-9.405-111.563,12.968-161.288,37.737c-33.199,16.537-64.648,37.823-93.047,63.651
				c-16.183,14.718-32.027,30.538-45.907,48.161H750V276.482z"/>
			<path style="fill:#25B782;" d="M585.104,241.908l-56.872,27.835l35.569-23.705C563.801,246.037,573.569,247.147,585.104,241.908z
				"/>
			<path style="fill:#3DD8A0;" d="M750,276.482l-72.945-37.132c-13.815-6.446-27.823-10.42-42.955-10.426
				c-3.504,0.803-6.94,1.95-10.024,3.825c-2.341,1.423-4.484,3.254-6.494,5.104c-2.21,2.033-4.289,4.245-5.995,6.72
				c-1.555,2.255-2.872,4.797-3.251,7.538c-0.565,4.089,1.462,8.09,4.355,10.874c2.922,2.811,6.714,4.605,10.522,5.891
				c8.762,2.958,18.226,3.669,27.412,3.997c3.826,0.136,7.655,0.162,11.483,0.218c7.022,0.103,14.046,0.331,21.064,0.58
				c7.798,0.277,15.585,0.691,23.368,1.242c4.844,0.343,9.721,0.586,14.472,1.666c4.541,1.033,9.291,2.918,12.057,6.858
				c2.202,3.137,3.083,7.541,2.203,11.273c-1.736,7.361-9.585,11.475-16.03,14.06c-7.36,2.952-15.154,4.612-22.895,6.222
				c-1.419,0.295-2.852,0.563-4.249,0.95c-2.031,0.563-4.005,1.328-5.919,2.207c-4.343,1.994-8.511,4.565-12.039,7.798
				c-3.038,2.784-6.062,6.452-6.402,10.726c-0.072,0.91-0.006,1.782,0.168,2.616H750V276.482z"/>
			<path style="fill:#25B782;" d="M416.319,331.746c-15.088-31.492,26.831-71.24,30.748-75.866
				c3.464-4.092,6.683-8.465,9.215-13.002c2.29-4.102,4.822-9.394,3.007-13.928c-1.242-3.103-4.441-5.218-7.911-6.586
				c-7.917-3.12-17.375-3.463-26.003-3.587c-7.905-0.114-15.845,0.227-23.607-1.293c-3.863-0.756-7.791-1.969-10.78-4.188
				c-2.969-2.204-4.446-5.277-4.422-8.547c0.031-4.33,2.444-8.301,5.151-11.908c1.346-1.793,2.809-3.527,4.347-5.215
				c-44.738,1.31-89.581,19.792-129.85,39.851c-33.199,16.537-64.648,37.823-93.047,63.651
				c-16.183,14.718-32.027,30.538-45.907,48.161h290.942C417.378,336.831,416.739,334.318,416.319,331.746z"/>
			<g>
				<path style="fill:#006F7A;" d="M285.536,240.26c-0.269-1.034-1.115-0.983-1.324,0l-1.459,6.327l0.91,0.389
					c0.198,0.089,0.135,0.328-0.088,0.328l-0.98-0.012l-3.55,15.443l2.045,0.916c0.231,0.136,0.188,0.37-0.105,0.341l-2.224-0.022
					l-2.316,10.074h16.856l-4.062-17.671l-1.267,0.017c-0.25-0.016-0.266-0.22-0.101-0.331l1.124-0.718L285.536,240.26z"/>
				<path style="fill:#006F7A;" d="M324.973,240.9c-0.269-1.034-1.115-0.983-1.324,0l-1.459,6.327l0.909,0.389
					c0.198,0.089,0.135,0.328-0.088,0.328l-0.98-0.012l-3.55,15.443l2.045,0.916c0.231,0.136,0.188,0.37-0.105,0.341l-2.224-0.022
					l-2.316,10.074h16.856l-4.062-17.671l-1.267,0.017c-0.25-0.016-0.266-0.22-0.101-0.331l1.124-0.718L324.973,240.9z"/>
				<path style="fill:#006F7A;" d="M344.385,251.436c-0.269-1.034-1.115-0.983-1.324,0l-1.459,6.327l0.91,0.389
					c0.198,0.089,0.135,0.328-0.088,0.328l-0.98-0.012l-3.55,15.444l2.045,0.916c0.231,0.136,0.188,0.37-0.105,0.341l-2.224-0.022
					l-2.316,10.074h16.856l-4.062-17.671l-1.267,0.017c-0.25-0.016-0.266-0.22-0.101-0.331l1.124-0.718L344.385,251.436z"/>
				<path style="fill:#006F7A;" d="M272.447,245.14c-0.255-0.883-1.059-0.839-1.257,0l-1.385,5.403l0.864,0.332
					c0.189,0.076,0.129,0.28-0.083,0.28l-0.93-0.01l-3.372,13.188l1.943,0.782c0.22,0.116,0.178,0.316-0.1,0.291l-2.113-0.019
					l-2.199,8.603h16.009l-3.858-15.091l-1.203,0.014c-0.238-0.014-0.253-0.188-0.096-0.282l1.067-0.613L272.447,245.14z"/>
				<path style="fill:#006F7A;" d="M335.177,257.265c-0.194-0.669-0.802-0.636-0.953,0l-1.05,4.094l0.655,0.252
					c0.143,0.058,0.098,0.212-0.063,0.212l-0.705-0.008l-2.555,9.993l1.472,0.593c0.166,0.088,0.135,0.24-0.076,0.221l-1.601-0.014
					l-1.667,6.519h12.131l-2.923-11.435l-0.912,0.011c-0.18-0.01-0.191-0.143-0.073-0.214l0.809-0.465L335.177,257.265z"/>
				<path style="fill:#006F7A;" d="M309.695,243.269c-0.272-0.94-1.127-0.894-1.339,0l-1.475,5.754l0.92,0.354
					c0.201,0.081,0.137,0.298-0.089,0.298l-0.991-0.011l-3.59,14.043l2.069,0.833c0.234,0.124,0.19,0.337-0.106,0.31l-2.25-0.02
					l-2.342,9.161h17.048l-4.108-16.069l-1.281,0.015c-0.253-0.015-0.269-0.2-0.102-0.301l1.137-0.653L309.695,243.269z"/>
				<path style="fill:#006F7A;" d="M298.258,248.909c-0.222-0.767-0.92-0.729-1.093,0l-1.204,4.698l0.751,0.289
					c0.164,0.066,0.112,0.244-0.073,0.243l-0.809-0.009l-2.931,11.466l1.689,0.68c0.191,0.101,0.155,0.275-0.087,0.253l-1.837-0.016
					l-1.912,7.479h13.918l-3.354-13.12l-1.046,0.013c-0.207-0.012-0.22-0.164-0.083-0.246l0.928-0.533L298.258,248.909z"/>
			</g>
			<path style="fill:#1DAA82;" d="M296.007,339.288l105.86-51.554c11.788-5.74,23.172-6.516,33.961,0
				c6.754,3.478,16.748,3.299,23.411-0.248c0,0,38.917-22.129,38.922-22.132c30.052-15.763,62.905,1.01,90.167,17.55
				c52.706,36.074,102.686,9.375,137.057,56.384H296.007"/>
			<path style="fill:#32CC91;" d="M0,339.288h497.109l-170.975-67.203c-19.039-7.482-37.425-8.494-54.851,0
				c-10.909,4.534-21.003,4.624-31.765,0c0,0-68.902-29.169-68.911-29.173c-48.537-20.548-101.598,1.317-145.63,22.877
				C16.134,270.733,7.811,275.728,0,280.668V339.288z"/>
			<path style="fill:#25B782;" d="M0,339.289h339.148c-0.57-1.445-1.257-2.861-2.083-4.239c-6.701-11.161-20.863-16.999-34.132-19.6
				c-14.788-2.899-30.227-2.116-45.093-0.125c-12.927,1.731-25.341,5.763-38.368,7.016c-9.904,0.953-24.532,0.358-28.105-9.911
				c-1.377-3.958-0.963-8.235-0.782-12.312c0.181-4.085,0.373-8.555-1.867-12.267c-2.374-3.934-7.056-6.226-11.691-7.45
				c-5.299-1.399-10.901-1.722-16.394-1.892c-5.568-0.172-11.149-0.096-16.71-0.429c-5.13-0.307-10.142-1.034-14.688-3.309
				c-5.079-2.542-9.078-6.595-11.261-11.421c-2.323-5.136-2.401-10.772-0.798-16.082c1.438-4.763,4.204-8.967,7.96-12.523
				c-34.715,0.986-69.609,16.086-100.158,31.044C16.134,270.733,7.811,275.728,0,280.668V339.289z"/>
			<path style="fill:#25B782;" d="M271.283,272.086l-45.682,22.944l29.29-19.513C259.663,275.61,265.082,274.534,271.283,272.086z"
				/>
		</g>
		<rect y="339.056" style="fill:#3DD8A0;" width="750" height="160.944"/>
		<g>
			<path style="fill:#94F0FF;" d="M540.963,437.92c-47.516-3.018-57.847-10.261,4.809-16.297
				c34.388-3.927,120.61-8.541,204.228-13.121v-33.098c-148.323,2.952-288.828,6.184-379.373,11.21c0,0-79,4.024-78.555,9.959
				c0.445,5.935,49.698,9.054,49.698,9.054c111.954,9.155,48.006,16.934-14.028,19.617C229.821,430.826,118.534,434.091,0,436.099
				V500h477.007c21.365-4.977,48.732-13.504,77.984-23.148C619.268,453.907,620.896,440.019,540.963,437.92z"/>
			<g>
				<path style="fill:#63E4EA;" d="M750,402.511c-25.238,1.257-154.087,7.868-217.249,14.876
					c-38.969,4.975-51.348,11.92-52.204,19.157c-2.047,20.748,44.252,16.391,35.275,36.013
					c-6.542,13.561-58.643,22.795-142.01,27.443h103.196c21.365-4.977,48.732-13.504,77.984-23.148
					c21.079-7.525,35.42-14.075,42.357-19.555c7.31-6.912-23.784-18.521-56.385-19.377c-20.046-1.273-33.474-3.298-37.595-5.668
					c-0.305-0.176-0.559-0.353-0.762-0.532c-0.808-0.716-0.782-1.461,0.149-2.221c0.233-0.19,0.522-0.382,0.869-0.574
					c0.347-0.192,0.751-0.385,1.214-0.579c3.705-1.551,11.168-3.148,22.948-4.706c1.472-0.195,3.012-0.389,4.621-0.583
					c0.804-0.097,1.626-0.193,2.464-0.29c3.355-0.385,6.986-0.767,10.901-1.145c4.892-0.559,10.832-1.131,17.665-1.715
					c2.277-0.195,4.654-0.391,7.124-0.588c1.647-0.132,3.335-0.264,5.063-0.396c4.32-0.332,8.888-0.666,13.678-1.004
					c1.916-0.135,3.867-0.271,5.852-0.407c3.97-0.272,8.075-0.546,12.302-0.821c2.113-0.138,4.257-0.276,6.429-0.414
					c1.086-0.069,2.179-0.139,3.279-0.208c2.2-0.139,4.428-0.278,6.682-0.418c1.127-0.07,2.26-0.14,3.4-0.21
					c2.279-0.14,4.584-0.28,6.912-0.421c2.328-0.141,4.68-0.281,7.053-0.423c4.746-0.282,9.58-0.566,14.486-0.85
					c2.453-0.142,4.925-0.285,7.413-0.428c1.244-0.071,2.492-0.143,3.744-0.214c2.504-0.143,5.024-0.286,7.558-0.429
					c2.534-0.143,5.081-0.287,7.641-0.431c2.56-0.144,5.132-0.287,7.715-0.431c9.039-0.504,18.208-1.009,27.431-1.516
					c3.953-0.217,7.916-0.434,11.884-0.651c2.645-0.145,5.292-0.29,7.939-0.434c2.647-0.145,5.294-0.29,7.94-0.434
					c1.681-0.092,3.36-0.184,5.039-0.276V402.511z"/>
				<path style="fill:#63E4EA;" d="M159.444,500c-19.317-7.399-40.3-23.41-46.477,0H159.444z"/>
			</g>
			<path style="fill:#63E4EA;" d="M432.682,393.508c0,0,272.06-10.72,317.318-12.072v-6.031
				c-148.323,2.952-288.828,6.184-379.373,11.21c0,0-79,4.024-78.555,9.959c0.445,5.935,49.698,9.054,49.698,9.054
				c111.954,9.155,48.006,16.934-14.028,19.617C229.821,430.826,118.534,434.091,0,436.099V448.9
				c32.555,0.165,65.102,0.925,97.652,1.512c83.133,1.5,166.168-1.186,248.72-11.473c18.74-2.335,37.501-4.946,55.812-9.661
				c6.603-1.7,23.033-5.461,20.502-15.072c-1.754-6.663-16.9-9.641-16.646-14.294C406.037,394.493,432.682,393.508,432.682,393.508z
				"/>
			<ellipse style="fill:#63E4EA;" cx="313.998" cy="467.167" rx="24.757" ry="3.266"/>
			<ellipse style="fill:#63E4EA;" cx="349.748" cy="476.674" rx="9.092" ry="1.597"/>
			<ellipse style="fill:#63E4EA;" cx="459.909" cy="415.6" rx="9.092" ry="1.597"/>
			<ellipse style="fill:#63E4EA;" cx="362.568" cy="448.673" rx="14.501" ry="2.125"/>
			<path style="fill:#63E4EA;" d="M477.597,470.432c0,1.173-6.492,2.125-14.501,2.125c-8.009,0-14.501-0.951-14.501-2.125
				c0-1.173,6.492-2.125,14.501-2.125C471.104,468.308,477.597,469.259,477.597,470.432z"/>
		</g>
		<g>
			<path style="fill:#25B782;" d="M403.057,415.661c-0.008,0.178-0.14,0.759-1.466,1.448c-7.222,3.763-40.781,6.705-73.848,8.135
				C195.283,432.851,170.745,412.831,0,426.549v15.896c118.531-2.012,228.983-6.175,326.905-11.757
				c47.582-2.814,76.293-7.524,76.152-12.028C403.05,418.413,403.056,416.055,403.057,415.661z"/>
			<path style="fill:#25B782;" d="M750,375.38c-145.937,1.668-344.64,0.025-421.367,8.753c0,0-37.411,3.74-36.561,12.441
				c0.055,0.561,0.524,1.099,1.358,1.61c1.315-5.733,77.197-8.566,77.197-8.566c90.545-5.026,231.05-8.258,379.373-11.21V375.38z"/>
			<path style="fill:#25B782;" d="M547.029,436.743c-20.289-1.289-39.857-2.17-43.799-4.576c-1.302-0.737-1.198-1.567-1.198-1.567
				s-0.015,2.824,0.001,3.136c0.155,3.014,14.833,6.286,39.053,7.825c36.231,2.814,58.355,6.352,57.019,15.116
				c2.106-1.431,3.418-3.832,3.755-4.704C604.743,443.308,587.126,439.401,547.029,436.743z"/>
		</g>
		<g>
			<path style="fill:#25B782;" d="M526.828,425.337c6.925-8.628,17.208-9.38,25.754,0H526.828z"/>
			<path style="fill:#25B782;" d="M548.556,431.93c3.462-4.314,8.604-4.69,12.877,0H548.556z"/>
		</g>
		<path style="fill:#25B782;" d="M145.093,379.055c3.923-4.056,9.749-4.41,14.591,0H145.093z"/>
		<g>
			<g>
				<g>
					<rect x="141.229" y="334.565" style="fill:#129B77;" width="37.463" height="0.691"/>
					<rect x="141.229" y="337.375" style="fill:#129B77;" width="37.463" height="0.692"/>
				</g>
				<g>
					<path style="fill:#77EDBA;" d="M142.605,332.934c-0.053-0.065-0.157-0.065-0.211,0l-0.598,0.731
						c-0.018,0.022-0.028,0.05-0.028,0.078v5.186c0,0.07,0.06,0.127,0.133,0.127h1.196c0.074,0,0.133-0.057,0.133-0.127v-5.186
						c0-0.028-0.01-0.055-0.028-0.078L142.605,332.934z"/>
					<path style="fill:#77EDBA;" d="M145.104,332.934c-0.053-0.065-0.157-0.065-0.21,0l-0.598,0.731
						c-0.018,0.022-0.028,0.05-0.028,0.078v5.186c0,0.07,0.06,0.127,0.133,0.127h1.196c0.074,0,0.133-0.057,0.133-0.127v-5.186
						c0-0.028-0.01-0.055-0.028-0.078L145.104,332.934z"/>
					<path style="fill:#77EDBA;" d="M147.603,332.934c-0.053-0.065-0.157-0.065-0.211,0l-0.598,0.731
						c-0.018,0.022-0.028,0.05-0.028,0.078v5.186c0,0.07,0.06,0.127,0.133,0.127h1.196c0.074,0,0.133-0.057,0.133-0.127v-5.186
						c0-0.028-0.01-0.055-0.028-0.078L147.603,332.934z"/>
					<path style="fill:#77EDBA;" d="M150.101,332.934c-0.053-0.065-0.157-0.065-0.21,0l-0.598,0.731
						c-0.018,0.022-0.028,0.05-0.028,0.078v5.186c0,0.07,0.06,0.127,0.133,0.127h1.196c0.074,0,0.133-0.057,0.133-0.127v-5.186
						c0-0.028-0.01-0.055-0.028-0.078L150.101,332.934z"/>
					<path style="fill:#77EDBA;" d="M152.6,332.934c-0.053-0.065-0.157-0.065-0.211,0l-0.598,0.731
						c-0.018,0.022-0.028,0.05-0.028,0.078v5.186c0,0.07,0.06,0.127,0.133,0.127h1.196c0.074,0,0.133-0.057,0.133-0.127v-5.186
						c0-0.028-0.01-0.055-0.028-0.078L152.6,332.934z"/>
					<path style="fill:#77EDBA;" d="M155.098,332.934c-0.029-0.036-0.073-0.048-0.116-0.044c-0.043-0.004-0.086,0.008-0.116,0.044
						l-0.598,0.731c-0.018,0.022-0.028,0.05-0.028,0.078v5.186c0,0.07,0.06,0.127,0.133,0.127h0.021h1.175h0.021
						c0.074,0,0.133-0.057,0.133-0.127v-5.186c0-0.028-0.01-0.055-0.028-0.078L155.098,332.934z"/>
					<path style="fill:#77EDBA;" d="M157.597,332.934c-0.029-0.036-0.073-0.048-0.116-0.044c-0.043-0.004-0.087,0.008-0.116,0.044
						l-0.598,0.731c-0.018,0.022-0.028,0.05-0.028,0.078v5.186c0,0.07,0.06,0.127,0.133,0.127h0.021h1.175h0.021
						c0.074,0,0.133-0.057,0.133-0.127v-5.186c0-0.028-0.01-0.055-0.028-0.078L157.597,332.934z"/>
					<path style="fill:#77EDBA;" d="M160.096,332.934c-0.029-0.036-0.073-0.048-0.116-0.044c-0.043-0.004-0.086,0.008-0.116,0.044
						l-0.598,0.731c-0.018,0.022-0.028,0.05-0.028,0.078v5.186c0,0.07,0.06,0.127,0.133,0.127h0.021h1.175h0.021
						c0.074,0,0.133-0.057,0.133-0.127v-5.186c0-0.028-0.01-0.055-0.028-0.078L160.096,332.934z"/>
					<path style="fill:#77EDBA;" d="M162.595,332.934c-0.029-0.036-0.073-0.048-0.116-0.044c-0.043-0.004-0.087,0.008-0.116,0.044
						l-0.598,0.731c-0.018,0.022-0.028,0.05-0.028,0.078v5.186c0,0.07,0.06,0.127,0.133,0.127h0.021h1.175h0.021
						c0.074,0,0.133-0.057,0.133-0.127v-5.186c0-0.028-0.01-0.055-0.028-0.078L162.595,332.934z"/>
					<path style="fill:#77EDBA;" d="M165.093,332.934c-0.029-0.036-0.073-0.048-0.116-0.044c-0.043-0.004-0.087,0.008-0.116,0.044
						l-0.598,0.731c-0.018,0.022-0.028,0.05-0.028,0.078v5.186c0,0.07,0.06,0.127,0.133,0.127h0.021h1.175h0.021
						c0.074,0,0.133-0.057,0.133-0.127v-5.186c0-0.028-0.01-0.055-0.028-0.078L165.093,332.934z"/>
					<path style="fill:#77EDBA;" d="M167.571,332.934c-0.053-0.065-0.157-0.065-0.211,0l-0.598,0.731
						c-0.018,0.022-0.028,0.05-0.028,0.078v5.186c0,0.07,0.06,0.127,0.133,0.127h1.196c0.074,0,0.133-0.057,0.133-0.127v-5.186
						c0-0.028-0.01-0.055-0.028-0.078L167.571,332.934z"/>
					<path style="fill:#77EDBA;" d="M170.069,332.934c-0.053-0.065-0.157-0.065-0.211,0l-0.598,0.731
						c-0.018,0.022-0.028,0.05-0.028,0.078v5.186c0,0.07,0.06,0.127,0.133,0.127h1.196c0.074,0,0.133-0.057,0.133-0.127v-5.186
						c0-0.028-0.01-0.055-0.028-0.078L170.069,332.934z"/>
					<path style="fill:#77EDBA;" d="M172.568,332.934c-0.053-0.065-0.157-0.065-0.211,0l-0.598,0.731
						c-0.018,0.022-0.028,0.05-0.028,0.078v5.186c0,0.07,0.06,0.127,0.133,0.127h1.196c0.074,0,0.133-0.057,0.133-0.127v-5.186
						c0-0.028-0.01-0.055-0.028-0.078L172.568,332.934z"/>
					<path style="fill:#77EDBA;" d="M175.067,332.934c-0.053-0.065-0.157-0.065-0.211,0l-0.598,0.731
						c-0.018,0.022-0.028,0.05-0.028,0.078v5.186c0,0.07,0.06,0.127,0.133,0.127h1.196c0.074,0,0.133-0.057,0.133-0.127v-5.186
						c0-0.028-0.01-0.055-0.028-0.078L175.067,332.934z"/>
					<path style="fill:#77EDBA;" d="M178.163,333.665l-0.598-0.731c-0.053-0.065-0.157-0.065-0.211,0l-0.598,0.731
						c-0.018,0.022-0.028,0.05-0.028,0.078v5.186c0,0.07,0.06,0.127,0.133,0.127h1.196c0.074,0,0.133-0.057,0.133-0.127v-5.186
						C178.191,333.714,178.182,333.687,178.163,333.665z"/>
				</g>
			</g>
			<g>
				<g>
					
						<rect x="36.494" y="316.047" transform="matrix(-1 -1.224647e-16 1.224647e-16 -1 99.7243 654.9525)" style="fill:#129B77;" width="26.736" height="22.858"/>
					<polygon style="fill:#77EDBA;" points="80.684,338.905 63.23,338.905 63.23,316.047 71.957,306.43 80.684,316.047 					"/>
					<polygon style="fill:#006F7A;" points="63.23,316.047 36.494,316.047 45.221,306.43 71.957,306.43 					"/>
					<g>
						
							<rect x="73.999" y="319.068" transform="matrix(-1 -1.224647e-16 1.224647e-16 -1 152.2082 643.3204)" style="fill:#025773;" width="4.209" height="5.184"/>
						
							<rect x="65.706" y="319.068" transform="matrix(-1 -1.224647e-16 1.224647e-16 -1 135.6209 643.3204)" style="fill:#025773;" width="4.209" height="5.184"/>
					</g>
					<g>
						
							<rect x="73.999" y="329.364" transform="matrix(-1 -1.224647e-16 1.224647e-16 -1 152.2082 663.9124)" style="fill:#025773;" width="4.209" height="5.184"/>
						
							<rect x="65.706" y="329.364" transform="matrix(-1 -1.224647e-16 1.224647e-16 -1 135.6209 663.9124)" style="fill:#025773;" width="4.209" height="5.184"/>
					</g>
					<g>
						<rect x="56.044" y="319.068" style="fill:#025773;" width="4.209" height="5.184"/>
						<rect x="47.75" y="319.068" style="fill:#025773;" width="4.209" height="5.184"/>
						<rect x="39.457" y="319.068" style="fill:#025773;" width="4.209" height="5.184"/>
					</g>
					<g>
						<rect x="56.044" y="329.364" style="fill:#025773;" width="4.209" height="5.184"/>
						<rect x="47.75" y="329.364" style="fill:#025773;" width="4.209" height="9.541"/>
						<rect x="39.457" y="329.364" style="fill:#025773;" width="4.209" height="5.184"/>
					</g>
					
						<rect x="56.604" y="304.696" transform="matrix(-1 -1.224647e-16 1.224647e-16 -1 116.0972 616.528)" style="fill:#129B77;" width="2.889" height="7.136"/>
					<polygon style="fill:#77EDBA;" points="61.294,304.696 61.294,309.847 59.493,311.832 59.493,304.696 					"/>
				</g>
				<g>
					
						<rect x="84.831" y="327.539" transform="matrix(-1 -1.224647e-16 1.224647e-16 -1 209.0158 666.5942)" style="fill:#129B77;" width="39.353" height="11.517"/>
					<polygon style="fill:#77EDBA;" points="139.691,339.056 124.184,339.056 124.184,327.539 131.938,317.921 139.691,327.539 
											"/>
					<polygon style="fill:#006F7A;" points="124.184,327.539 84.831,327.539 92.585,317.921 131.938,317.921 					"/>
					<g>
						
							<rect x="119.877" y="330.559" transform="matrix(-1 -1.224647e-16 1.224647e-16 -1 241.6427 662.9896)" style="fill:#025773;" width="1.888" height="1.871"/>
						
							<rect x="92.644" y="330.559" transform="matrix(-1 -1.224647e-16 1.224647e-16 -1 187.1751 662.9896)" style="fill:#025773;" width="1.888" height="1.871"/>
						
							<rect x="87.197" y="330.559" transform="matrix(-1 -1.224647e-16 1.224647e-16 -1 176.2815 662.9896)" style="fill:#025773;" width="1.888" height="1.871"/>
						
							<rect x="114.431" y="330.559" transform="matrix(-1 -1.224647e-16 1.224647e-16 -1 230.7491 662.9896)" style="fill:#025773;" width="1.888" height="1.871"/>
						
							<rect x="108.984" y="330.559" transform="matrix(-1 -1.224647e-16 1.224647e-16 -1 219.8557 662.9896)" style="fill:#025773;" width="1.888" height="1.871"/>
						
							<rect x="103.537" y="330.559" transform="matrix(-1 -1.224647e-16 1.224647e-16 -1 208.9621 662.9896)" style="fill:#025773;" width="1.888" height="1.871"/>
						
							<rect x="98.09" y="330.559" transform="matrix(-1 -1.224647e-16 1.224647e-16 -1 198.0687 662.9896)" style="fill:#025773;" width="1.888" height="1.871"/>
					</g>
					
						<rect x="135.67" y="330.559" transform="matrix(-1 -1.224647e-16 1.224647e-16 -1 272.7614 666.3026)" style="fill:#025773;" width="1.421" height="5.184"/>
					
						<rect x="131.228" y="330.559" transform="matrix(-1 -1.224647e-16 1.224647e-16 -1 263.876 666.3026)" style="fill:#025773;" width="1.421" height="5.184"/>
					
						<rect x="126.785" y="330.559" transform="matrix(-1 -1.224647e-16 1.224647e-16 -1 254.9906 666.3026)" style="fill:#025773;" width="1.421" height="5.184"/>
				</g>
			</g>
		</g>
		<ellipse style="fill:#63E4EA;" cx="602.627" cy="398.184" rx="8.034" ry="1.411"/>
		<path style="fill:#63E4EA;" d="M624.541,391.874c0,0.284-1.313,0.515-2.933,0.515c-1.62,0-2.933-0.231-2.933-0.515
			c0-0.284,1.313-0.515,2.933-0.515C623.228,391.359,624.541,391.59,624.541,391.874z"/>
		<g>
			<path style="fill:#006F7A;" d="M377.725,291.541c-0.378-1.454-1.568-1.382-1.862,0l-2.051,8.899l1.279,0.547
				c0.279,0.125,0.19,0.462-0.124,0.461l-1.378-0.016l-4.992,21.719l2.877,1.288c0.325,0.191,0.264,0.521-0.148,0.48l-3.128-0.031
				l-3.257,14.168h23.705l-5.712-24.852l-1.782,0.024c-0.352-0.023-0.374-0.31-0.142-0.465l1.58-1.01L377.725,291.541z"/>
			<path style="fill:#006F7A;" d="M430.663,291.541c-0.378-1.454-1.568-1.382-1.862,0l-2.051,8.899l1.279,0.547
				c0.279,0.125,0.191,0.462-0.124,0.461l-1.378-0.016l-4.992,21.719l2.877,1.288c0.325,0.191,0.264,0.521-0.148,0.48l-3.128-0.031
				l-3.257,14.168h23.705l-5.713-24.852l-1.782,0.024c-0.352-0.023-0.374-0.31-0.142-0.465l1.58-1.01L430.663,291.541z"/>
			<path style="fill:#006F7A;" d="M359.318,298.404c-0.359-1.241-1.489-1.18-1.768,0l-1.948,7.599l1.215,0.467
				c0.265,0.107,0.181,0.394-0.117,0.394l-1.308-0.014l-4.742,18.547l2.732,1.1c0.309,0.163,0.251,0.445-0.14,0.41l-2.971-0.026
				l-3.093,12.099h22.515l-5.426-21.223l-1.692,0.02c-0.335-0.02-0.355-0.264-0.135-0.397l1.501-0.863L359.318,298.404z"/>
			<path style="fill:#006F7A;" d="M447.538,308.31c-0.272-0.94-1.128-0.894-1.34,0l-1.476,5.758l0.921,0.354
				c0.201,0.081,0.137,0.299-0.089,0.298l-0.991-0.011l-3.593,14.054l2.07,0.834c0.234,0.124,0.19,0.337-0.106,0.311l-2.251-0.02
				l-2.344,9.168h17.06l-4.111-16.081l-1.283,0.015c-0.254-0.015-0.269-0.2-0.102-0.301l1.137-0.654L447.538,308.31z"/>
			<path style="fill:#006F7A;" d="M411.701,295.772c-0.383-1.322-1.586-1.257-1.883,0l-2.075,8.092l1.294,0.497
				c0.282,0.114,0.193,0.42-0.125,0.419l-1.393-0.015l-5.049,19.75l2.909,1.171c0.329,0.174,0.267,0.474-0.149,0.436l-3.164-0.028
				l-3.294,12.884h23.975l-5.778-22.599l-1.802,0.022c-0.356-0.021-0.378-0.282-0.143-0.423l1.598-0.919L411.701,295.772z"/>
			<path style="fill:#006F7A;" d="M395.616,303.703c-0.312-1.079-1.294-1.026-1.537,0l-1.694,6.607l1.056,0.406
				c0.23,0.093,0.157,0.343-0.102,0.342l-1.138-0.012l-4.122,16.125l2.375,0.956c0.268,0.142,0.218,0.387-0.122,0.356l-2.583-0.023
				l-2.689,10.519h19.574l-4.717-18.451l-1.471,0.018c-0.291-0.017-0.309-0.23-0.117-0.345l1.305-0.75L395.616,303.703z"/>
		</g>
		<g>
			<g>
				<rect x="689.012" y="342.543" style="fill:#FFFFFF;" width="56.557" height="14.706"/>
				<polygon style="fill:#008C97;" points="666.726,357.248 689.012,357.248 689.012,342.543 677.869,330.262 666.726,342.543 				
					"/>
				<polygon style="fill:#FFC340;" points="689.012,342.543 745.568,342.543 734.426,330.262 677.869,330.262 				"/>
				<g>
					<rect x="692.489" y="346.399" style="fill:#025773;" width="2.713" height="2.389"/>
					<rect x="731.628" y="346.399" style="fill:#025773;" width="2.713" height="2.389"/>
					<rect x="739.456" y="346.399" style="fill:#025773;" width="2.713" height="2.389"/>
					<rect x="700.317" y="346.399" style="fill:#025773;" width="2.713" height="2.389"/>
					<rect x="708.144" y="346.399" style="fill:#025773;" width="2.713" height="2.389"/>
					<rect x="715.972" y="346.399" style="fill:#025773;" width="2.713" height="2.389"/>
					<rect x="723.8" y="346.399" style="fill:#025773;" width="2.713" height="2.389"/>
				</g>
				<rect x="670.463" y="346.399" style="fill:#025773;" width="2.042" height="6.62"/>
				<rect x="676.848" y="346.399" style="fill:#025773;" width="2.042" height="6.62"/>
				<rect x="683.233" y="346.399" style="fill:#025773;" width="2.042" height="6.62"/>
			</g>
			<g>
				<rect x="540.329" y="328.062" style="fill:#FFFFFF;" width="34.139" height="29.186"/>
				<polygon style="fill:#008C97;" points="518.043,357.248 540.329,357.248 540.329,328.062 529.186,315.782 518.043,328.062 				
					"/>
				<polygon style="fill:#FFC340;" points="540.329,328.062 574.468,328.062 563.325,315.782 529.186,315.782 				"/>
				<g>
					<rect x="521.204" y="331.919" style="fill:#025773;" width="5.375" height="6.62"/>
					<rect x="531.794" y="331.919" style="fill:#025773;" width="5.375" height="6.62"/>
				</g>
				<g>
					<rect x="521.204" y="345.066" style="fill:#025773;" width="5.375" height="6.62"/>
					<rect x="531.794" y="345.066" style="fill:#025773;" width="5.375" height="6.62"/>
				</g>
				<g>
					<rect x="544.13" y="331.919" style="fill:#025773;" width="5.375" height="6.62"/>
					<rect x="554.72" y="331.919" style="fill:#025773;" width="5.375" height="6.62"/>
					<rect x="565.31" y="331.919" style="fill:#025773;" width="5.375" height="6.62"/>
				</g>
				<g>
					<rect x="544.13" y="345.066" style="fill:#025773;" width="5.375" height="6.62"/>
					<rect x="554.72" y="345.066" style="fill:#025773;" width="5.375" height="12.182"/>
					<rect x="565.31" y="345.066" style="fill:#025773;" width="5.375" height="6.62"/>
				</g>
				<g>
					<rect x="545.101" y="313.568" style="fill:#FFFFFF;" width="3.689" height="9.111"/>
					<polygon style="fill:#008C97;" points="542.802,313.568 542.802,320.146 545.101,322.68 545.101,313.568 					"/>
				</g>
			</g>
			<g>
				<g>
					<path style="fill:#025773;" d="M255.896,347.69h-0.385v-2.447c0-0.339,0.259-0.585,0.617-0.585v0.384
						c-0.145,0-0.231,0.075-0.231,0.201V347.69z"/>
					<path style="fill:#025773;" d="M255.964,349.24h-0.52c-0.091,0-0.164-0.073-0.164-0.164v-1.44c0-0.091,0.074-0.164,0.164-0.164
						h0.52c0.091,0,0.164,0.074,0.164,0.164v1.44C256.128,349.166,256.054,349.24,255.964,349.24z"/>
				</g>
				<path style="fill:#025773;" d="M247.464,353.444c0,0.302-0.246,0.547-0.548,0.547c-0.303,0-0.548-0.245-0.548-0.547
					c0-0.302,0.246-0.547,0.548-0.547C247.219,352.898,247.464,353.142,247.464,353.444z"/>
				<path style="fill:#FFC340;" d="M258.547,349.084h-4.941l-0.83-4.563h-6.758v4.662l-0.645,0.123l-0.91,0.726l1.27,1.375
					c0,0,3.121,1.822,5.108,1.974h7.49l0.572-3.888C258.932,349.277,258.765,349.084,258.547,349.084z M249.329,347.845
					c0,0.248-0.204,0.451-0.453,0.451h-1.892c-0.249,0-0.453-0.203-0.453-0.451v-2.395c0-0.248,0.204-0.452,0.453-0.452h1.892
					c0.249,0,0.453,0.203,0.453,0.452V347.845z M252.363,348.297h-2.225c-0.157,0-0.286-0.15-0.286-0.334v-2.63
					c0-0.184,0.129-0.334,0.286-0.334h1.715c0.157,0,0.286,0.15,0.286,0.334l0.51,2.63
					C252.649,348.147,252.52,348.297,252.363,348.297z"/>
				<path style="fill:#025773;" d="M252.992,344.557c0-0.002,0-0.005,0-0.007c0-0.304-0.343-0.553-0.644-0.553H246.4
					c-0.32,0-0.581,0.249-0.581,0.553c0,0.002,0,0.004,0,0.007H252.992z"/>
				<polygon style="fill:#025773;" points="243.573,351.091 243.283,350.743 245.289,349.08 248.73,349.08 250.396,350.433 
					250.109,350.784 248.568,349.532 245.453,349.532 				"/>
				<path style="fill:#025773;" d="M250.72,353.801v-0.693l-0.135-0.073c-0.023-0.207-0.063-0.408-0.119-0.603l0.095-0.118
					l-0.267-0.639l-0.148-0.015c-0.098-0.176-0.211-0.343-0.336-0.5l0.042-0.142l-0.491-0.49l-0.141,0.042
					c-0.163-0.129-0.336-0.246-0.519-0.347l-0.016-0.144l-0.643-0.264l-0.112,0.091c-0.193-0.055-0.393-0.095-0.597-0.118
					l-0.069-0.127h-0.695l-0.069,0.128c-0.212,0.024-0.418,0.066-0.617,0.124l-0.109-0.092l-0.641,0.267l-0.011,0.144
					c-0.179,0.1-0.349,0.214-0.509,0.342l-0.14-0.045l-0.491,0.49l0.046,0.142c-0.13,0.163-0.246,0.336-0.347,0.52l-0.149,0.012
					l-0.264,0.641l0.1,0.116c-0.054,0.191-0.093,0.388-0.115,0.59l-0.138,0.07v0.693l0.141,0.072c0.024,0.206,0.065,0.406,0.122,0.6
					l-0.103,0.121l0.267,0.639l0.162,0.013c0.097,0.172,0.208,0.336,0.331,0.489l-0.051,0.156l0.491,0.49l0.158-0.051
					c0.158,0.125,0.326,0.237,0.504,0.335l0.014,0.165l0.642,0.264l0.127-0.108c0.187,0.052,0.379,0.091,0.576,0.113l0.076,0.148
					h0.695l0.076-0.148c0.202-0.023,0.398-0.062,0.589-0.116l0.131,0.105l0.641-0.267l0.017-0.165
					c0.17-0.095,0.331-0.203,0.483-0.322l0.16,0.047l0.491-0.49l-0.046-0.157c0.125-0.157,0.238-0.324,0.336-0.5l0.16-0.017
					l0.264-0.641l-0.1-0.122c0.054-0.188,0.093-0.381,0.116-0.58L250.72,353.801z"/>
				<path style="fill:#025773;" d="M260.09,354.797v-0.493l-0.096-0.052c-0.016-0.147-0.045-0.29-0.085-0.429l0.068-0.084
					l-0.19-0.455l-0.105-0.011c-0.07-0.125-0.15-0.244-0.239-0.356l0.03-0.101l-0.349-0.348l-0.1,0.03
					c-0.115-0.092-0.239-0.175-0.369-0.247l-0.011-0.102l-0.457-0.187l-0.08,0.065c-0.137-0.039-0.279-0.067-0.425-0.084
					l-0.049-0.09h-0.494l-0.049,0.091c-0.151,0.017-0.297,0.047-0.439,0.088l-0.078-0.066l-0.456,0.19l-0.008,0.102
					c-0.127,0.071-0.248,0.152-0.362,0.243l-0.099-0.032l-0.349,0.348l0.033,0.101c-0.092,0.116-0.175,0.239-0.247,0.37
					l-0.106,0.009l-0.188,0.456l0.071,0.083c-0.038,0.136-0.066,0.276-0.082,0.42l-0.098,0.05v0.493l0.1,0.051
					c0.017,0.146,0.046,0.289,0.086,0.427l-0.073,0.086l0.19,0.455l0.115,0.009c0.069,0.122,0.148,0.239,0.235,0.348l-0.036,0.111
					l0.349,0.348l0.112-0.036c0.112,0.089,0.232,0.169,0.358,0.238l0.01,0.117l0.457,0.187l0.09-0.077
					c0.133,0.037,0.27,0.064,0.41,0.081l0.054,0.105h0.494l0.054-0.105c0.143-0.016,0.283-0.044,0.419-0.083l0.093,0.075l0.456-0.19
					l0.012-0.117c0.121-0.068,0.236-0.144,0.344-0.229l0.113,0.033l0.349-0.348l-0.033-0.111c0.089-0.111,0.169-0.23,0.239-0.355
					l0.114-0.012l0.188-0.456l-0.071-0.087c0.038-0.133,0.066-0.271,0.082-0.412L260.09,354.797z"/>
				<path style="fill:#008C97;" d="M249.243,353.444c0,1.282-1.042,2.321-2.327,2.321c-1.285,0-2.327-1.039-2.327-2.321
					c0-1.282,1.042-2.32,2.327-2.32C248.201,351.124,249.243,352.163,249.243,353.444z"/>
				<path style="fill:#0057B5;" d="M247.464,353.444c0,0.302-0.246,0.547-0.548,0.547c-0.303,0-0.548-0.245-0.548-0.547
					c0-0.302,0.246-0.547,0.548-0.547C247.219,352.898,247.464,353.142,247.464,353.444z"/>
				<g>
					<path style="fill:#025773;" d="M246.916,352.898c-0.303,0-0.548,0.245-0.548,0.547c0,0.302,0.246,0.547,0.548,0.547
						c0.303,0,0.548-0.245,0.548-0.547C247.464,353.142,247.219,352.898,246.916,352.898z"/>
				</g>
				<path style="fill:#008C97;" d="M258.526,354.583c0,0.628-0.511,1.138-1.141,1.138c-0.63,0-1.141-0.51-1.141-1.138
					c0-0.629,0.511-1.138,1.141-1.138C258.015,353.444,258.526,353.954,258.526,354.583z"/>
				<path style="fill:#025773;" d="M257.734,354.583c0,0.193-0.157,0.349-0.35,0.349c-0.193,0-0.35-0.156-0.35-0.349
					c0-0.193,0.157-0.349,0.35-0.349C257.578,354.234,257.734,354.39,257.734,354.583z"/>
				<g>
					<path style="fill:#025773;" d="M247.068,352.311c0,0.084-0.068,0.151-0.152,0.151c-0.084,0-0.152-0.068-0.152-0.151
						c0-0.084,0.068-0.152,0.152-0.152C247,352.159,247.068,352.227,247.068,352.311z"/>
					<path style="fill:#025773;" d="M247.068,354.578c0,0.084-0.068,0.151-0.152,0.151c-0.084,0-0.152-0.068-0.152-0.151
						c0-0.084,0.068-0.152,0.152-0.152C247,354.427,247.068,354.495,247.068,354.578z"/>
				</g>
				<g>
					<path style="fill:#025773;" d="M248.053,353.596c-0.084,0-0.152-0.068-0.152-0.152s0.068-0.151,0.152-0.151
						c0.084,0,0.152,0.068,0.152,0.151S248.137,353.596,248.053,353.596z"/>
					<path style="fill:#025773;" d="M245.779,353.596c-0.084,0-0.152-0.068-0.152-0.152s0.068-0.151,0.152-0.151
						c0.084,0,0.152,0.068,0.152,0.151S245.863,353.596,245.779,353.596z"/>
				</g>
				<g>
					<path style="fill:#025773;" d="M247.827,352.75c-0.059,0.059-0.156,0.059-0.215,0c-0.059-0.059-0.059-0.155,0-0.214
						c0.059-0.059,0.156-0.059,0.215,0C247.887,352.595,247.887,352.691,247.827,352.75z"/>
					<path style="fill:#025773;" d="M246.219,354.353c-0.059,0.059-0.156,0.059-0.215,0c-0.059-0.059-0.059-0.155,0-0.214
						c0.059-0.059,0.156-0.059,0.215,0C246.279,354.198,246.279,354.294,246.219,354.353z"/>
				</g>
				<g>
					<path style="fill:#025773;" d="M247.612,354.353c-0.059-0.059-0.059-0.155,0-0.214c0.059-0.059,0.156-0.059,0.215,0
						c0.059,0.059,0.059,0.155,0,0.214C247.768,354.413,247.672,354.413,247.612,354.353z"/>
					<path style="fill:#025773;" d="M246.004,352.75c-0.059-0.059-0.059-0.155,0-0.214c0.059-0.059,0.156-0.059,0.215,0
						c0.059,0.059,0.059,0.155,0,0.214C246.16,352.809,246.064,352.809,246.004,352.75z"/>
				</g>
				<path style="fill:#025773;" d="M258.111,349.887h-1.177c-0.036,0-0.066-0.03-0.066-0.066l0,0c0-0.036,0.03-0.066,0.066-0.066
					h1.177c0.036,0,0.066,0.03,0.066,0.066l0,0C258.177,349.857,258.147,349.887,258.111,349.887z"/>
				<path style="fill:#025773;" d="M258.111,350.166h-1.177c-0.036,0-0.066-0.03-0.066-0.066l0,0c0-0.036,0.03-0.066,0.066-0.066
					h1.177c0.036,0,0.066,0.03,0.066,0.066l0,0C258.177,350.136,258.147,350.166,258.111,350.166z"/>
				<path style="fill:#025773;" d="M258.111,350.445h-1.177c-0.036,0-0.066-0.03-0.066-0.066l0,0c0-0.036,0.03-0.066,0.066-0.066
					h1.177c0.036,0,0.066,0.03,0.066,0.066l0,0C258.177,350.415,258.147,350.445,258.111,350.445z"/>
				<path style="fill:#025773;" d="M250.734,349.156h-0.644c-0.075,0-0.136-0.061-0.136-0.136l0,0c0-0.075,0.061-0.136,0.136-0.136
					h0.644c0.075,0,0.136,0.061,0.136,0.136l0,0C250.87,349.095,250.809,349.156,250.734,349.156z"/>
			</g>
			<g>
				<polygon style="fill:#FFFFFF;" points="209.839,357.248 178.479,357.248 181.189,318.18 207.129,318.18 				"/>
				<rect x="182.485" y="314.429" style="fill:#008C97;" width="23.349" height="3.751"/>
				<polygon style="fill:#FFC340;" points="194.159,306.502 178.479,314.429 209.839,314.429 				"/>
				<rect x="182.485" y="314.429" style="fill:#EDA30F;" width="23.349" height="3.751"/>
				<path style="fill:#025773;" d="M195.783,328.321v-3.798c0-0.89-0.731-1.619-1.623-1.619l0,0c-0.893,0-1.623,0.729-1.623,1.619
					v3.798H195.783z"/>
				<path style="fill:#025773;" d="M195.783,340.422v-3.798c0-0.89-0.731-1.619-1.623-1.619l0,0c-0.893,0-1.623,0.729-1.623,1.619
					v3.798H195.783z"/>
				<path style="fill:#025773;" d="M197.199,357.248v-7.11c0-1.667-1.368-3.031-3.039-3.031l0,0c-1.672,0-3.039,1.364-3.039,3.031
					v7.11H197.199z"/>
				<ellipse style="fill:#025773;" cx="194.159" cy="316.552" rx="2.874" ry="2.866"/>
				<g>
					<g>
						<g>
							<polygon style="fill:#025773;" points="217.023,343.997 201.675,328.691 206.332,324.047 221.68,339.353 							"/>
							<polygon style="fill:#025773;" points="209.04,332.008 194.435,317.443 195.053,316.828 209.657,331.392 							"/>
						</g>
						<g>
							<polygon style="fill:#025773;" points="171.296,289.107 186.643,304.413 181.987,309.057 166.639,293.751 							"/>
							<polygon style="fill:#025773;" points="179.279,301.097 193.883,315.661 193.266,316.277 178.661,301.713 							"/>
						</g>
					</g>
					<g>
						<g>
							<polygon style="fill:#025773;" points="166.639,339.353 181.987,324.047 186.643,328.691 171.296,343.997 							"/>
							<polygon style="fill:#025773;" points="178.661,331.392 193.266,316.828 193.883,317.443 179.279,332.008 							"/>
						</g>
						<g>
							<polygon style="fill:#025773;" points="221.68,293.751 206.332,309.057 201.675,304.413 217.023,289.107 							"/>
							<polygon style="fill:#025773;" points="209.657,301.713 195.053,316.277 194.435,315.661 209.04,301.097 							"/>
						</g>
					</g>
				</g>
			</g>
			<g>
				<g>
					<path style="fill:#E2950C;" d="M412.301,357.248c0,0-5.538,0-6.242,0c-0.704,0-1.275-1.081-1.275-2.414
						c0-1.333,0.571-2.414,1.275-2.414c0.528,0,6.242,0,6.242,0V357.248z"/>
					<path style="fill:#FFC340;" d="M413.576,354.835c0,1.333-0.571,2.414-1.275,2.414c-0.704,0-1.275-1.081-1.275-2.414
						c0-1.333,0.571-2.414,1.275-2.414C413.005,352.421,413.576,353.502,413.576,354.835z"/>
				</g>
				<g>
					<path style="fill:#E2950C;" d="M408.805,357.248c0,0-5.538,0-6.242,0c-0.704,0-1.275-1.081-1.275-2.414
						c0-1.333,0.571-2.414,1.275-2.414c0.528,0,6.242,0,6.242,0V357.248z"/>
					<path style="fill:#FFC340;" d="M410.08,354.835c0,1.333-0.571,2.414-1.275,2.414c-0.704,0-1.275-1.081-1.275-2.414
						c0-1.333,0.571-2.414,1.275-2.414C409.509,352.421,410.08,353.502,410.08,354.835z"/>
				</g>
				<g>
					<path style="fill:#E2950C;" d="M410.651,352.421c0,0-5.538,0-6.243,0c-0.704,0-1.275-1.08-1.275-2.413
						c0-1.333,0.571-2.414,1.275-2.414c0.528,0,6.243,0,6.243,0V352.421z"/>
					<path style="fill:#FFC340;" d="M411.926,350.008c0,1.333-0.571,2.413-1.275,2.413c-0.704,0-1.275-1.08-1.275-2.413
						c0-1.333,0.571-2.414,1.275-2.414C411.355,347.594,411.926,348.675,411.926,350.008z"/>
				</g>
			</g>
			<g>
				<g>
					<path style="fill:#E2950C;" d="M427.499,357.248c0,0-5.538,0-6.242,0c-0.704,0-1.275-1.081-1.275-2.414
						c0-1.333,0.571-2.414,1.275-2.414c0.528,0,6.242,0,6.242,0V357.248z"/>
					<path style="fill:#FFC340;" d="M428.774,354.835c0,1.333-0.571,2.414-1.275,2.414c-0.704,0-1.275-1.081-1.275-2.414
						c0-1.333,0.571-2.414,1.275-2.414C428.203,352.421,428.774,353.502,428.774,354.835z"/>
				</g>
				<g>
					<path style="fill:#E2950C;" d="M424.003,357.248c0,0-5.538,0-6.242,0c-0.704,0-1.275-1.081-1.275-2.414
						c0-1.333,0.571-2.414,1.275-2.414c0.528,0,6.242,0,6.242,0V357.248z"/>
					<path style="fill:#FFC340;" d="M425.278,354.835c0,1.333-0.571,2.414-1.275,2.414c-0.704,0-1.275-1.081-1.275-2.414
						c0-1.333,0.571-2.414,1.275-2.414C424.707,352.421,425.278,353.502,425.278,354.835z"/>
				</g>
				<g>
					<path style="fill:#E2950C;" d="M425.849,352.421c0,0-5.538,0-6.242,0c-0.704,0-1.275-1.08-1.275-2.413
						c0-1.333,0.571-2.414,1.275-2.414c0.528,0,6.242,0,6.242,0V352.421z"/>
					<path style="fill:#FFC340;" d="M427.124,350.008c0,1.333-0.571,2.413-1.275,2.413c-0.704,0-1.275-1.08-1.275-2.413
						c0-1.333,0.571-2.414,1.275-2.414C426.553,347.594,427.124,348.675,427.124,350.008z"/>
				</g>
			</g>
			<g>
				<g>
					<path style="fill:#1DAA82;" d="M118.499,350.548c3.448-5.585,11.281-6.265,14.983-0.747c0.591,0.881,1.589,1.354,2.644,1.236
						c2.964-0.332,5.513,0.644,7.719,2.529c0.77,0.658,1.855,0.837,2.739,0.342c1.252-0.702,2.926-0.965,4.499-0.59
						c0.877,0.209,1.813-0.168,2.251-0.954c2.533-4.539,8.674-5.237,11.659-1.066c0.554,0.774,1.439,1.2,2.389,1.119
						c3.407-0.292,6.098,1.662,8.26,4.833h-28.578h-4.992H103.73c3.447-2.915,7.054-4.895,11.031-4.706
						C116.293,352.615,117.694,351.851,118.499,350.548z"/>
				</g>
				<g>
					<path style="fill:#52EFB2;" d="M127.507,357.19c0,0,2.779-2.493,8.413-2.223c0.74,0.035,1.464-0.215,2.063-0.65
						c1.329-0.966,2.836-1.446,4.553-1.266c0.735,0.077,1.432-0.265,1.85-0.873c2.531-3.685,7.864-3.121,10.069,0.789
						c0.443,0.786,1.339,1.153,2.242,1.097c2.688-0.167,5.121,1.16,7.445,3.125H127.507z"/>
				</g>
			</g>
			<g>
				<path style="fill:#025773;" d="M480.066,357.248l0.146-13.07c0,0-3.913-1.27-4.285-7.091h0.566c0,0,0.495,4.551,3.714,5.256
					v-3.634h1.132l0.442,18.538H480.066z"/>
				<path style="fill:#008C97;" d="M476.408,338.046c-2.085-0.899-4.031-2.186-5.527-3.428c-0.337-0.279-0.667-0.567-0.989-0.862
					c-0.778-0.712-1.485-1.514-1.978-2.451c-1.117-2.126-1.008-4.733-0.198-6.993c0.682-1.903,1.776-3.674,3.047-5.238
					c1.332-1.638,2.68-3.295,4.379-4.573c2.023-1.521,4.562-2.444,7.061-1.711c2.466,0.724,4.626,2.907,6.188,4.885
					c1.673,2.12,3.16,4.602,3.469,7.327c0.502,4.426-1.966,8.516-4.764,11.733C484.246,340.013,480.107,339.641,476.408,338.046z"/>
			</g>
			<g>
				<path style="fill:#025773;" d="M495.868,357.248l0.136-10.704c0,0-4.21-1.305-4.616-7.443l0.528,0.229
					c0,0,0.578,5.176,4.088,5.725l-0.011-4.238h1.003l0.068,2.863c1.955-0.595,3.257-2.101,3.532-3.893l0.383-0.366
					c0,0,0.322,3.542-3.892,5.205l0.301,12.621H495.868z"/>
				<path style="fill:#007787;" d="M492.625,340.229c-1.848-0.797-3.573-1.938-4.899-3.039c-0.298-0.248-0.591-0.503-0.877-0.764
					c-0.689-0.631-1.316-1.342-1.753-2.173c-0.99-1.884-0.893-4.195-0.176-6.198c0.604-1.687,1.574-3.256,2.701-4.642
					c1.18-1.452,2.375-2.921,3.882-4.053c1.793-1.348,4.043-2.166,6.258-1.516c2.186,0.642,4.1,2.577,5.484,4.33
					c1.483,1.879,2.801,4.079,3.075,6.494c0.445,3.923-1.742,7.548-4.222,10.399C499.573,341.972,495.904,341.643,492.625,340.229z"
					/>
			</g>
			<g>
				<path style="fill:#025773;" d="M628.801,357.248l0.18-14.135c0,0-5.559-1.724-6.096-9.829l0.698,0.303
					c0,0,0.763,6.835,5.398,7.561l-0.014-5.597h1.325l0.09,3.781c2.582-0.786,4.301-2.774,4.664-5.141l0.505-0.484
					c0,0,0.425,4.678-5.14,6.874l0.397,16.667H628.801z"/>
				<path style="fill:#007787;" d="M624.518,334.774c-2.44-1.052-4.718-2.559-6.469-4.013c-0.394-0.327-0.78-0.664-1.158-1.009
					c-0.91-0.833-1.738-1.772-2.315-2.869c-1.308-2.488-1.179-5.539-0.232-8.185c0.798-2.228,2.079-4.3,3.567-6.13
					c1.559-1.917,3.136-3.857,5.126-5.352c2.368-1.78,5.34-2.861,8.265-2.002c2.886,0.847,5.415,3.402,7.243,5.718
					c1.958,2.481,3.699,5.387,4.06,8.576c0.587,5.18-2.301,9.967-5.576,13.733C633.693,337.075,628.849,336.64,624.518,334.774z"/>
			</g>
			<g>
				<g>
					<rect x="465.469" y="351.515" style="fill:#BCF5F7;" width="47.835" height="0.883"/>
					<rect x="465.469" y="355.102" style="fill:#BCF5F7;" width="47.835" height="0.883"/>
				</g>
				<g>
					<path style="fill:#FFFFFF;" d="M467.226,349.431c-0.068-0.083-0.201-0.083-0.269,0l-0.763,0.933
						c-0.023,0.028-0.036,0.063-0.036,0.099v6.622c0,0.089,0.076,0.162,0.17,0.162h1.527c0.094,0,0.17-0.072,0.17-0.162v-6.622
						c0-0.036-0.012-0.071-0.036-0.099L467.226,349.431z"/>
					<path style="fill:#FFFFFF;" d="M470.416,349.431c-0.068-0.083-0.201-0.083-0.269,0l-0.764,0.933
						c-0.023,0.028-0.036,0.063-0.036,0.099v6.622c0,0.089,0.076,0.162,0.17,0.162h1.527c0.094,0,0.17-0.072,0.17-0.162v-6.622
						c0-0.036-0.013-0.071-0.036-0.099L470.416,349.431z"/>
					<path style="fill:#FFFFFF;" d="M473.607,349.431c-0.068-0.083-0.201-0.083-0.269,0l-0.763,0.933
						c-0.023,0.028-0.036,0.063-0.036,0.099v6.622c0,0.089,0.076,0.162,0.17,0.162h1.527c0.094,0,0.17-0.072,0.17-0.162v-6.622
						c0-0.036-0.013-0.071-0.036-0.099L473.607,349.431z"/>
					<path style="fill:#FFFFFF;" d="M476.797,349.431c-0.068-0.083-0.201-0.083-0.269,0l-0.764,0.933
						c-0.023,0.028-0.036,0.063-0.036,0.099v6.622c0,0.089,0.076,0.162,0.17,0.162h1.527c0.094,0,0.17-0.072,0.17-0.162v-6.622
						c0-0.036-0.013-0.071-0.036-0.099L476.797,349.431z"/>
					<path style="fill:#FFFFFF;" d="M479.988,349.431c-0.068-0.083-0.201-0.083-0.269,0l-0.763,0.933
						c-0.023,0.028-0.036,0.063-0.036,0.099v6.622c0,0.089,0.076,0.162,0.17,0.162h1.527c0.094,0,0.17-0.072,0.17-0.162v-6.622
						c0-0.036-0.012-0.071-0.036-0.099L479.988,349.431z"/>
					<path style="fill:#FFFFFF;" d="M483.178,349.431c-0.038-0.046-0.093-0.061-0.148-0.056c-0.055-0.005-0.11,0.01-0.148,0.056
						l-0.764,0.933c-0.023,0.028-0.036,0.063-0.036,0.099v6.622c0,0.089,0.076,0.162,0.17,0.162h0.027h1.5h0.027
						c0.094,0,0.17-0.072,0.17-0.162v-6.622c0-0.036-0.013-0.071-0.036-0.099L483.178,349.431z"/>
					<path style="fill:#FFFFFF;" d="M486.369,349.431c-0.038-0.046-0.093-0.061-0.148-0.056c-0.055-0.005-0.111,0.01-0.148,0.056
						l-0.763,0.933c-0.023,0.028-0.036,0.063-0.036,0.099v6.622c0,0.089,0.076,0.162,0.17,0.162h0.027h1.5h0.027
						c0.094,0,0.17-0.072,0.17-0.162v-6.622c0-0.036-0.012-0.071-0.036-0.099L486.369,349.431z"/>
					<path style="fill:#FFFFFF;" d="M489.559,349.431c-0.038-0.046-0.093-0.061-0.148-0.056c-0.055-0.005-0.11,0.01-0.148,0.056
						l-0.764,0.933c-0.023,0.028-0.036,0.063-0.036,0.099v6.622c0,0.089,0.076,0.162,0.17,0.162h0.027h1.5h0.027
						c0.094,0,0.17-0.072,0.17-0.162v-6.622c0-0.036-0.013-0.071-0.036-0.099L489.559,349.431z"/>
					<path style="fill:#FFFFFF;" d="M492.749,349.431c-0.037-0.046-0.093-0.061-0.148-0.056c-0.055-0.005-0.111,0.01-0.148,0.056
						l-0.763,0.933c-0.023,0.028-0.036,0.063-0.036,0.099v6.622c0,0.089,0.076,0.162,0.17,0.162h0.027h1.5h0.027
						c0.094,0,0.17-0.072,0.17-0.162v-6.622c0-0.036-0.013-0.071-0.036-0.099L492.749,349.431z"/>
					<path style="fill:#FFFFFF;" d="M495.94,349.431c-0.037-0.046-0.093-0.061-0.148-0.056c-0.055-0.005-0.11,0.01-0.148,0.056
						l-0.764,0.933c-0.023,0.028-0.036,0.063-0.036,0.099v6.622c0,0.089,0.076,0.162,0.17,0.162h0.027h1.5h0.027
						c0.094,0,0.17-0.072,0.17-0.162v-6.622c0-0.036-0.013-0.071-0.036-0.099L495.94,349.431z"/>
					<path style="fill:#FFFFFF;" d="M499.103,349.431c-0.068-0.083-0.201-0.083-0.269,0l-0.763,0.933
						c-0.023,0.028-0.036,0.063-0.036,0.099v6.622c0,0.089,0.076,0.162,0.17,0.162h1.527c0.094,0,0.17-0.072,0.17-0.162v-6.622
						c0-0.036-0.012-0.071-0.036-0.099L499.103,349.431z"/>
					<path style="fill:#FFFFFF;" d="M502.294,349.431c-0.068-0.083-0.201-0.083-0.269,0l-0.764,0.933
						c-0.023,0.028-0.036,0.063-0.036,0.099v6.622c0,0.089,0.076,0.162,0.17,0.162h1.527c0.094,0,0.17-0.072,0.17-0.162v-6.622
						c0-0.036-0.013-0.071-0.036-0.099L502.294,349.431z"/>
					<path style="fill:#FFFFFF;" d="M505.484,349.431c-0.068-0.083-0.201-0.083-0.269,0l-0.763,0.933
						c-0.023,0.028-0.036,0.063-0.036,0.099v6.622c0,0.089,0.076,0.162,0.17,0.162h1.527c0.094,0,0.17-0.072,0.17-0.162v-6.622
						c0-0.036-0.013-0.071-0.036-0.099L505.484,349.431z"/>
					<path style="fill:#FFFFFF;" d="M508.675,349.431c-0.068-0.083-0.201-0.083-0.269,0l-0.764,0.933
						c-0.023,0.028-0.036,0.063-0.036,0.099v6.622c0,0.089,0.076,0.162,0.17,0.162h1.527c0.094,0,0.17-0.072,0.17-0.162v-6.622
						c0-0.036-0.013-0.071-0.036-0.099L508.675,349.431z"/>
					<path style="fill:#FFFFFF;" d="M512.629,350.365l-0.763-0.933c-0.068-0.083-0.201-0.083-0.269,0l-0.763,0.933
						c-0.023,0.028-0.036,0.063-0.036,0.099v6.622c0,0.089,0.076,0.162,0.17,0.162h1.527c0.094,0,0.17-0.072,0.17-0.162v-6.622
						C512.664,350.428,512.652,350.393,512.629,350.365z"/>
				</g>
			</g>
			<g>
				<g>
					<path style="fill:#00937E;" d="M612.094,350.548c3.448-5.585,11.281-6.265,14.984-0.747c0.591,0.881,1.589,1.354,2.644,1.236
						c2.964-0.332,5.513,0.644,7.719,2.529c0.77,0.658,1.855,0.837,2.739,0.342c1.252-0.702,2.926-0.965,4.499-0.59
						c0.877,0.209,1.813-0.168,2.251-0.954c2.533-4.539,8.674-5.237,11.659-1.066c0.554,0.774,1.439,1.2,2.389,1.119
						c3.407-0.292,6.098,1.662,8.26,4.833h-28.578h-4.992h-38.344c3.447-2.915,7.054-4.895,11.031-4.706
						C609.889,352.615,611.29,351.851,612.094,350.548z"/>
				</g>
				<g>
					<path style="fill:#52EFB2;" d="M621.102,357.19c0,0,2.779-2.493,8.413-2.223c0.74,0.035,1.464-0.215,2.063-0.65
						c1.329-0.966,2.836-1.446,4.553-1.266c0.735,0.077,1.432-0.265,1.85-0.873c2.531-3.685,7.864-3.121,10.069,0.789
						c0.443,0.786,1.339,1.153,2.242,1.097c2.688-0.167,5.121,1.16,7.445,3.125H621.102z"/>
				</g>
			</g>
			<g>
				<rect x="338.755" y="342.543" style="fill:#FFFFFF;" width="56.557" height="14.706"/>
				<polygon style="fill:#008C97;" points="316.469,357.248 338.755,357.248 338.755,342.543 327.612,330.262 316.469,342.543 				
					"/>
				<polygon style="fill:#FFC340;" points="338.755,342.543 395.312,342.543 384.169,330.262 327.612,330.262 				"/>
				<g>
					<rect x="342.232" y="346.399" style="fill:#025773;" width="2.713" height="2.389"/>
					<rect x="381.371" y="346.399" style="fill:#025773;" width="2.713" height="2.389"/>
					<rect x="389.199" y="346.399" style="fill:#025773;" width="2.713" height="2.389"/>
					<rect x="350.06" y="346.399" style="fill:#025773;" width="2.713" height="2.389"/>
					<rect x="357.887" y="346.399" style="fill:#025773;" width="2.713" height="2.389"/>
					<rect x="365.715" y="346.399" style="fill:#025773;" width="2.713" height="2.389"/>
					<rect x="373.543" y="346.399" style="fill:#025773;" width="2.713" height="2.389"/>
				</g>
				<rect x="320.206" y="346.399" style="fill:#025773;" width="2.042" height="6.62"/>
				<rect x="326.591" y="346.399" style="fill:#025773;" width="2.042" height="6.62"/>
				<rect x="332.976" y="346.399" style="fill:#025773;" width="2.042" height="6.62"/>
			</g>
			<path style="fill:#025773;" d="M383.116,353.744c-0.774,0-1.493,0.234-2.09,0.634c-0.673,0.483-1.531,0.524-2.197-0.306
				c-1.132-1.614-3.006-2.671-5.132-2.671c-2.37,0-4.425,1.312-5.49,3.246c-0.376,0.678-0.997,0.86-1.827,0.428
				c-0.385-0.214-0.828-0.335-1.301-0.335c-1.427,0-2.591,1.108-2.683,2.508h16.97h0.587h6.912
				C386.737,355.292,385.11,353.744,383.116,353.744z"/>
			<g>
				<rect x="297.456" y="342.543" style="fill:#FFFFFF;" width="26.557" height="14.706"/>
				<polygon style="fill:#008C97;" points="275.171,357.248 297.456,357.248 297.456,342.543 286.314,330.262 275.171,342.543 				
					"/>
				<polygon style="fill:#FFC340;" points="297.456,342.543 324.014,342.543 312.871,330.262 286.314,330.262 				"/>
				<g>
					<rect x="300.933" y="346.399" style="fill:#025773;" width="2.713" height="6.62"/>
					<rect x="309.417" y="346.399" style="fill:#025773;" width="2.713" height="6.62"/>
					<rect x="317.901" y="346.399" style="fill:#025773;" width="2.713" height="6.62"/>
				</g>
				<rect x="278.908" y="346.399" style="fill:#025773;" width="2.042" height="6.62"/>
				<rect x="285.293" y="346.399" style="fill:#025773;" width="2.042" height="6.62"/>
				<rect x="291.677" y="346.399" style="fill:#025773;" width="2.042" height="6.62"/>
			</g>
		</g>
		<path style="fill:#77EDBA;" d="M62.531,414.268c39.659-9.017,59.178-10.541,99.569-10.183c25.263,1.741,73.49,4.16,96.571,0.45
			c15.155-2.857,2.815-9.367-2.776-10.341s-17.59-2.01-34.714-2.217c-36.353-0.439-85.097-1.622-66.501-17.102
			c20.244-10.439,68.382-6.133,68.382-6.133s18.663,1.232,19.42-2.26c-0.592-8.755-43.192,0.633-48.826-9.235h1.005
			c7.289,8.44,52.453-2.596,50.391,10.038c-1.554,5.635-22.246,4.185-22.246,4.185s-49.163-3.368-63.784,5.329
			c-20.06,16.939,86.1,5.713,106.792,13.728c10.223,3.581,15.445,13.685,4.703,18.418c-25.383,8.808-102.388,4.127-102.388,4.127
			s-65.114-2.353-104.199,6.922L62.531,414.268z"/>
		<g>
			<g>
				<path style="fill:#006F7A;" d="M750,293.226l-12.057-52.556c-2.108-8.098-8.733-7.698-10.373,0l-11.428,49.574l7.126,3.048
					c1.555,0.699,1.062,2.572-0.688,2.57l-7.675-0.091l-27.812,120.996l16.025,7.177c1.811,1.064,1.471,2.902-0.822,2.673
					l-17.428-0.172L667.962,500H750V293.226z"/>
				<path style="fill:#009687;" d="M652.167,467.214l-9.962-0.089L633.8,500h71.559l-16.225-63.466l-5.675,0.068
					c-1.122-0.065-1.19-0.887-0.451-1.331l5.033-2.893l-15.496-60.735c-1.205-4.162-4.992-3.957-5.929,0l-6.533,25.48l4.074,1.567
					c0.889,0.359,0.607,1.322-0.394,1.321l-4.387-0.047l-15.899,62.189l9.161,3.689
					C653.672,466.387,653.478,467.332,652.167,467.214z"/>
			</g>
			<g>
				<path style="fill:#006F7A;" d="M252.97,500c-3.774-11.079-12.733-19.737-22.995-23.734c-5.888-2.294-12.111-3.216-18.363-3.105
					c-14.33,0.397-4.203-11.37-3.383-16.735c0.915-5.992-0.838-12.079-4.579-16.816c-6.254-7.919-17.149-10.766-26.898-9.746
					c-0.489,0.051-0.976,0.113-1.462,0.187c-1.905,0.289-3.783,0.764-5.58,1.462c-3.789,1.404-5.897-1.223-3.457-6.443
					c14.329-29.555-15.977-72.469-53.689-60.323c-8.708,3.662-15.632,8.003-21.497,13.947c-2.438,2.363-3.904,1.016-3.506-1.231
					c5.924-24.896-17.777-36.813-35.104-26.154c-4.252,2.616-9.731-0.227-9.804-5.209c-0.358-24.561-16.024-42.572-41.914-27.242
					c-0.259,0.092-0.5,0.199-0.74,0.307V500H252.97z"/>
				<path style="fill:#009687;" d="M148.636,500c-2.298-6.341-7.488-11.286-13.413-13.595c-4.536-1.767-9.41-2.152-14.22-1.603
					c-2.85,0.326-5.357-1.782-5.586-4.633c-0.431-5.363-4.27-10.679-9.113-12.592c-3.066-1.211-6.299-1.406-9.521-0.945
					c-3.318,0.504-3.993-1.534-1.907-4.702c1.123-1.776,2.064-3.698,2.806-5.688c8.442-17.412-9.413-42.695-31.631-35.539
					c-3.875,1.63-7.442,3.998-10.63,6.898c-2.648,2.108-4.972,1.584-4.822-1.933c0.219-11.804-10.327-18.09-19.216-13.309
					c-2.627,1.413-5.736-0.469-5.702-3.445C25.872,391.608,11.33,382.419,0,386.603V500H148.636z"/>
				<path style="fill:#006F7A;" d="M221.743,470.38c-4.056,0.468-7.422-2.366-7.422-2.366s3.211-3.593,7.267-4.061
					c4.056-0.468,7.422,2.366,7.422,2.366S225.799,469.912,221.743,470.38z"/>
				<path style="fill:#009687;" d="M39.072,400.066c-2.991,5.376-9.438,7.002-9.438,7.002s-1.597-7.089,1.394-12.465
					c2.991-5.375,9.438-7.002,9.438-7.002S42.063,394.69,39.072,400.066z"/>
				<path style="fill:#006F7A;" d="M220.499,456.274c-2.279,5.422-8.075,8.363-8.075,8.363s-2.1-5.849,0.179-11.271
					c2.279-5.422,8.075-8.363,8.075-8.363S222.778,450.852,220.499,456.274z"/>
			</g>
		</g>
		<g>
			<g>
				<path style="fill:#025773;" d="M603.761,478.025l0.44-34.583c0,0-13.601-4.218-14.914-24.048l1.706,0.74
					c0,0,1.868,16.722,13.207,18.498l-0.035-13.693h3.242l0.22,9.251c6.317-1.922,10.522-6.788,11.412-12.577l1.237-1.184
					c0,0,1.039,11.444-12.575,16.818l0.973,40.777H603.761z"/>
				<path style="fill:#02A591;" d="M593.284,423.039c-5.971-2.574-11.542-6.261-15.828-9.817c-0.964-0.8-1.909-1.624-2.833-2.47
					c-2.227-2.039-4.253-4.336-5.663-7.019c-3.199-6.087-2.885-13.553-0.567-20.024c1.952-5.45,5.086-10.521,8.727-14.999
					c3.814-4.691,7.674-9.436,12.541-13.095c5.794-4.356,13.064-6.999,20.221-4.898c7.061,2.073,13.248,8.325,17.72,13.99
					c4.791,6.07,9.05,13.179,9.934,20.981c1.436,12.674-5.629,24.386-13.642,33.599C615.732,428.67,603.879,427.606,593.284,423.039
					z"/>
				<polygon style="fill:#025773;" points="602.328,401.272 595.884,391.999 589.352,390.842 589.461,390.168 594.648,390.223 
					591.634,384.752 592.349,384.349 602.48,397.634 				"/>
			</g>
			<g>
				<path style="fill:#52EFB2;" d="M586.474,480.044c0,0,2.779-2.493,8.413-2.223c0.74,0.035,1.464-0.215,2.063-0.65
					c1.329-0.965,2.836-1.446,4.553-1.266c0.735,0.077,1.432-0.265,1.85-0.873c2.53-3.685,7.864-3.121,10.069,0.789
					c0.443,0.786,1.339,1.153,2.242,1.097c2.688-0.167,5.121,1.16,7.445,3.125H586.474z"/>
			</g>
		</g>
	</g>
</g>
</svg>
